#!OML:ASF F:\VICON\USERDATA\INSTALL\rory3\rory3.ASF
:FULLY-SPECIFIED
:DEGREES
10
root 0.35854871996045856 17.527300994377743 -14.318889699628865 6.673935281406147 -0.11931931342961533 -1.4975446667835042
lfemur -13.676605499750215 8.088964030636127 -17.379205066345932
ltibia 18.81820575785501
lfoot -10.473299296554261 4.0387537931698345
ltoes -12.505997005330336
rfemur -14.177705080465833 -2.3002854784603155 19.056110868065655
rtibia 21.534005201550286
rfoot -13.334400117267185 -2.3979813301090185
rtoes 5.450662808237806
lowerback -1.779566095124411 -0.7375261247953723 0.532219322136368
upperback 5.051519918685328 -1.1051204721782288 1.6642588731913823
thorax 6.263160965792247 -0.5677717974058533 1.3534569066177657
lowerneck -11.076104684966024 0.5134050244191177 -2.3993039866729835
upperneck 36.29978594398176 0.9770762216211282 1.0967945212290124
head 14.254784859610002 0.23173264175433972 1.0191264666472637
lclavicle -1.6527450859172839e-15 3.6495729254597946e-16
lhumerus -15.784309001890989 -1.0626115261326108 88.75649496997221
lradius 19.406504153355435
lwrist 0.3335074379556424
lhand -23.44090198352734 -3.346066982250359
lfingers 7.125019999999999
lthumb 3.0173380155311946 26.612292963517007
rclavicle -1.6527450859172839e-15 3.6495729254597946e-16
rhumerus -19.15550893902736 -16.815094973257285 -83.47628891478014
rradius 26.27660234439194
rwrist 31.099909552483485
rhand -18.08779484422885 -26.71059888392486
rfingers 7.125019999999999
rthumb 8.185615155520454 -56.53199860276233
11
root 0.38614695104433083 17.527900990161765 -14.324789694824362 6.7241452006508275 -0.2817659407350615 -1.5563837371015172
lfemur -13.78890542327593 8.203203415381454 -17.438104718375705
ltibia 18.937605688296934
lfoot -10.653899115742794 4.567752806111158
ltoes -14.352194563240932
rfemur -14.252005029152578 -2.357055248336242 19.02321108399247
rtibia 21.470205237270683
rfoot -13.25510019340154 -2.2177516626947127
rtoes 5.386192888025866
lowerback -1.7721261059654032 -0.6699549913086595 0.5866738258754347
upperback 5.082339794547186 -1.0188713280336894 1.6809385529698015
thorax 6.289130909193661 -0.5229966269383655 1.3466170029083104
lowerneck -11.136504504392969 0.552514334790748 -2.3568650326523914
upperneck 36.34188589702157 1.0142698564135852 1.129494220553143
head 14.286884751324465 0.2574898762117763 1.0315559901434563
lclavicle -1.6527450775250258e-15 3.6495731776268364e-16
lhumerus -15.607909183748864 -0.10750744724832018 88.43789565233004
lradius 18.774505122661424
lwrist -0.4798388576446433
lhand -23.50100164008984 -3.3648269082458704
lfingers 7.125019999999999
lthumb 2.95922835940551 26.594393034587842
rclavicle -1.6527450775250258e-15 3.6495731776268364e-16
rhumerus -19.10900901962434 -17.01229473341326 -83.51028881907435
rradius 26.009302717822557
rwrist 31.472308700953082
rhand -17.99499541900535 -26.754498494602377
rfingers 7.125019999999999
rthumb 8.275194580419205 -56.57249825951199
12
root 0.4110693536361581 17.52770099156709 -14.321089697837328 6.735095183039384 -0.4437845716571331 -1.6080529207067473
lfemur -13.801005415036018 8.218713331850292 -17.478904477336904
ltibia 19.028705635225442
lfoot -10.719799049765628 4.9880020219686045
ltoes -15.247593378836836
rfemur -14.23790503889033 -2.3822351462660594 18.989111307795035
rtibia 21.386705284020827
rfoot -13.188200257630903 -2.0667119414149187
rtoes 5.287683009941803
lowerback -1.778486096698101 -0.59671493051868 0.6289544405589698
upperback 5.076019820003166 -0.9235732736820261 1.6908483627182505
thorax 6.283620921202058 -0.4740425338921807 1.3400570952571353
lowerneck -11.11030458272102 0.5477074195527946 -2.302246378820989
upperneck 36.48878573316279 1.003939957843763 1.0983245071606937
head 14.350384537114735 0.2549659512265078 1.009286843863472
lclavicle -1.652745082102594e-15 3.649572997507197e-16
lhumerus -15.588809203439823 0.6844537889732161 88.19709616806065
lradius 18.265905902707345
lwrist -1.246333193821111
lhand -23.551801349796573 -3.4227366798023935
lfingers 7.125019999999999
lthumb 2.910188649606793 26.537193261696896
rclavicle -1.652745082102594e-15 3.649572997507197e-16
rhumerus -19.065309095368153 -17.45999418889921 -83.32378934404888
rradius 25.637203237663677
rwrist 32.00680747876455
rhand -17.898696015459848 -26.74559857353108
rfingers 7.125019999999999
rthumb 8.368093984003645 -56.559798367148524
13
root 0.4319330163740203 17.526401000701707 -14.316189701827486 6.722565203192023 -0.483255238125008 -1.6950115467239866
lfemur -13.849505382008399 8.214043357001195 -17.4574046043549
ltibia 19.198905536073195
lfoot -10.609699159994545 5.105851802072828
ltoes -14.76349401918755
rfemur -14.171205084954863 -2.3339753418938214 19.009011177188846
rtibia 21.31510532410833
rfoot -13.148100296130117 -2.0870619038622413
rtoes 5.285053013196686
lowerback -1.8180160390980444 -0.6005768809941091 0.680662969322968
upperback 5.103799708109668 -0.9342211680223285 1.718707827863739
thorax 6.335910807242106 -0.47761446771632504 1.3390371096162528
lowerneck -11.02380484132316 0.5392705683227893 -2.3324656340166126
upperneck 36.4988857218968 0.9962340335089036 1.0975045147005784
head 14.335384587715456 0.2470351869403855 1.0125067204248344
lclavicle -1.6527450746428442e-15 3.6495729885016686e-16
lhumerus -15.657409132717307 1.2148062774938682 88.02229654243652
lradius 18.02150627754657
lwrist -1.5002929738788504
lhand -23.53200146294237 -3.586006035734563
lfingers 7.125019999999999
lthumb 2.929338536283902 26.373593911260542
rclavicle -1.6527450746428442e-15 3.6495729885016686e-16
rhumerus -18.936509318613105 -17.745793841295644 -83.10668995515863
rradius 25.431903524477377
rwrist 32.36110666862163
rhand -17.899096012982362 -26.791498166471808
rfingers 7.125019999999999
rthumb 8.367753986186434 -56.605797977283935
14
root 0.45088980133373247 17.523501021078935 -14.30738970899353 6.691385253340423 -0.4243407359600054 -1.7621804854265855
lfemur -13.900605347210243 8.097503984642824 -17.449004653980538
ltibia 19.403905416647756
lfoot -10.492799277031427 5.217621593521697
ltoes -14.439694447498976
rfemur -14.086905143174342 -2.36646521019167 19.015611133872216
rtibia 21.289605338385293
rfoot -13.133500310147287 -2.130891822980974
rtoes 5.113163225927696
lowerback -1.8355360135692518 -0.6222546030050754 0.7317855034273162
upperback 5.114309665777041 -0.9666848458832957 1.724577715171852
thorax 6.357130760995595 -0.49128121451771806 1.3139874622592547
lowerneck -11.01000488257992 0.5250428192057477 -2.2952865503576687
upperneck 36.5526856618859 0.9748982430068885 1.0688847778609254
head 14.358384510127689 0.23833344556882569 0.9914935259961145
lclavicle -1.6527450609948483e-15 3.649572808382143e-16
lhumerus -15.789308996736304 1.3494061476838706 87.96329666879909
lradius 17.903206458984705
lwrist -1.6011828865030013
lhand -23.529501477228457 -3.6300858618476965
lfingers 7.125019999999999
lthumb 2.9317085222590844 26.32949408635686
rclavicle -1.6527450609948483e-15 3.649572808382143e-16
rhumerus -18.842009482406965 -17.929193618235843 -82.86969062228441
rradius 25.441703510786326
rwrist 32.471206416866806
rhand -18.109494709825288 -26.75679847420507
rfingers 7.125019999999999
rthumb 8.164655290083102 -56.579098203574894
15
root 0.4643119410380374 17.52110103794285 -14.297189717299647 6.63910533742502 -0.4906151759326029 -1.8197695754948104
lfemur -13.870305367844004 8.089924025465919 -17.429404769773686
ltibia 19.54490533450636
lfoot -10.436399333497468 5.259881514668958
ltoes -14.061194948165646
rfemur -14.009205196835708 -2.3102154382078566 19.028111051833154
rtibia 21.300005332562506
rfoot -13.12200032118821 -2.1515717848193363
rtoes 4.971773400911913
lowerback -1.8638359723326707 -0.6165616760095763 0.7097677040824111
upperback 5.138249569350475 -0.9590789213573441 1.7250477061488216
thorax 6.399130669461506 -0.48871126213024507 1.3271572768577236
lowerneck -10.984404959114196 0.5119940492993442 -2.3020263842431254
upperneck 36.588985621395246 0.9527464605171725 1.077224701174787
head 14.369984470996473 0.2281297488375702 0.9929214712537624
lclavicle -1.652745067352622e-15 3.6495728466575546e-16
lhumerus -15.863708920034336 1.446306054232259 87.95939667715186
lradius 17.76220667523809
lwrist -1.7344727710671064
lhand -23.467901829237615 -3.5836760449259577
lfingers 7.125019999999999
lthumb 2.991198170218419 26.375093905304887
rclavicle -1.652745067352622e-15 3.6495728466575546e-16
rhumerus -18.760409623841646 -17.876193682696954 -82.67479117090392
rradius 25.590803302486645
rwrist 32.39890658218809
rhand -18.218494034710645 -26.805298044087976
rfingers 7.125019999999999
rthumb 8.059425965656938 -56.63159775862075
16
root 0.4744612905127224 17.51970104778013 -14.288589724302772 6.591855413419626 -0.5443437219195916 -1.837409296779816
lfemur -13.797405417487564 8.096103992182709 -17.4413046994707
ltibia 19.58000531405838
lfoot -10.415599354321822 5.203731619438984
ltoes -13.613395540499976
rfemur -13.949605237996813 -2.3370153295708125 19.013711146342157
rtibia 21.33030531559813
rfoot -13.12950031398761 -2.1017718767172857
rtoes 4.907043481021743
lowerback -1.8785559508838294 -0.6464612925852704 0.625514471908476
upperback 5.15611949737291 -0.9948935659664646 1.7143379117587219
thorax 6.428530605387657 -0.5104598592022805 1.3604168086379145
lowerneck -11.00660489274463 0.5352446393134271 -2.2839268303370766
upperneck 36.66418553751388 0.9977530185938582 1.0333951041907916
head 14.409884336398548 0.24228332817255616 0.979332992187812
lclavicle -1.652745065360526e-15 3.6495727025616845e-16
lhumerus -15.94870883240442 1.6548758530846226 87.9629966694416
lradius 17.692306782444557
lwrist -1.841542678339077
lhand -23.548001371511422 -3.6356958397173518
lfingers 7.125019999999999
lthumb 2.913868627829861 26.324194107400178
rclavicle -1.652745065360526e-15 3.6495727025616845e-16
rhumerus -18.56690995922905 -17.80679376710456 -82.55949149545921
rradius 25.628603249678278
rwrist 32.439806488666086
rhand -18.190694206895845 -26.804998046748494
rfingers 7.125019999999999
rthumb 8.086275793280645 -56.630297769638666
